<svg width="270" height="703" viewBox="0 0 270 703" fill="none" xmlns="http://www.w3.org/2000/svg">
<g opacity="0.5">
<path opacity="0.5" d="M192.582 38.0785C150.255 59.5329 113.414 88.6356 83.0742 124.552C53.7626 159.261 31.697 198.86 17.5034 242.245C3.30982 285.631 -2.29614 330.612 0.834843 375.936C4.08503 422.841 16.6088 468.09 38.0632 510.418C59.5176 552.745 88.6204 589.586 124.537 619.926C159.245 649.238 198.844 671.303 242.23 685.497C285.616 699.69 330.597 705.296 375.921 702.165C422.826 698.915 468.075 686.391 510.402 664.937C552.73 643.483 589.57 614.38 619.911 578.463C649.222 543.755 671.288 504.156 685.482 460.77C699.675 417.384 705.281 372.403 702.15 327.079C698.9 280.175 686.376 234.925 664.922 192.598C643.467 150.27 614.365 113.43 578.448 83.0895C543.74 53.7779 504.141 31.7122 460.755 17.5186C417.369 3.32507 372.388 -2.28083 327.064 0.850154C280.159 4.10034 234.91 16.6241 192.582 38.0785ZM506.988 658.153C465.585 679.145 421.32 691.401 375.414 694.577C331.074 697.648 287.062 692.161 244.601 678.266C202.139 664.385 163.405 642.797 129.442 614.111C94.3008 584.427 65.8391 548.377 44.832 506.974C23.8398 465.571 11.5844 421.305 8.40876 375.4C5.33747 331.06 10.824 287.048 24.7194 244.586C38.5999 202.125 60.1885 163.39 88.8738 129.427C118.558 94.2862 154.609 65.8245 196.012 44.8174C237.414 23.8253 281.695 11.5699 327.586 8.39422C371.926 5.32293 415.938 10.8095 458.399 24.7049C500.861 38.5854 539.595 60.1739 573.558 88.8593C608.699 118.544 637.161 154.594 658.168 195.997C679.145 237.43 691.415 281.695 694.591 327.586C697.662 371.926 692.176 415.938 678.28 458.399C664.385 500.846 642.811 539.595 614.126 573.558C584.442 608.699 548.391 637.161 506.988 658.153Z" fill="white" fill-opacity="0.3"/>
</g>
</svg>
