<svg width="270" height="703" viewBox="0 0 270 703" fill="none" xmlns="http://www.w3.org/2000/svg">
<g opacity="0.5">
<g opacity="0.7">
<g opacity="0.7">
<path opacity="0.7" d="M209.922 351.5C209.922 370.614 213.664 389.161 221.044 406.605C228.171 423.467 238.384 438.6 251.385 451.616C264.385 464.616 279.533 474.829 296.396 481.956C313.839 489.336 332.386 493.078 351.5 493.078C370.614 493.078 389.161 489.336 406.605 481.956C423.467 474.829 438.6 464.616 451.616 451.616C464.616 438.615 474.829 423.467 481.956 406.605C489.336 389.161 493.078 370.614 493.078 351.5C493.078 332.386 489.336 313.839 481.956 296.396C474.829 279.533 464.616 264.4 451.616 251.385C438.615 238.384 423.467 228.171 406.605 221.044C389.161 213.664 370.614 209.922 351.5 209.922C332.386 209.922 313.839 213.664 296.396 221.044C279.533 228.171 264.4 238.384 251.385 251.385C238.384 264.385 228.171 279.533 221.044 296.396C213.664 313.839 209.922 332.386 209.922 351.5ZM490.022 351.5C490.022 370.211 486.354 388.341 479.138 405.412C472.16 421.901 462.171 436.721 449.439 449.454C436.706 462.186 421.901 472.175 405.397 479.153C388.326 486.369 370.181 490.037 351.485 490.037C332.774 490.037 314.644 486.369 297.573 479.153C281.084 472.175 266.264 462.186 253.532 449.454C240.799 436.721 230.81 421.916 223.832 405.412C216.616 388.341 212.949 370.196 212.949 351.5C212.949 332.789 216.616 314.659 223.832 297.588C230.81 281.099 240.799 266.279 253.532 253.546C266.264 240.814 281.069 230.825 297.573 223.847C314.644 216.631 332.789 212.963 351.485 212.963C370.196 212.963 388.326 216.631 405.397 223.847C421.887 230.825 436.706 240.814 449.439 253.546C462.171 266.279 472.16 281.084 479.138 297.588C486.369 314.659 490.022 332.789 490.022 351.5Z" fill="white" fill-opacity="0.3"/>
</g>
<g opacity="0.7">
<path opacity="0.7" d="M242.29 351.5C242.29 366.26 245.167 380.558 250.848 393.991C256.349 406.992 264.221 418.681 274.27 428.715C284.319 438.764 295.993 446.636 308.994 452.137C322.427 457.818 336.725 460.695 351.485 460.695C366.245 460.695 380.543 457.818 393.976 452.137C406.977 446.636 418.666 438.764 428.7 428.715C438.749 418.666 446.621 406.992 452.122 393.991L449.305 392.799C443.967 405.427 436.304 416.788 426.538 426.553C416.773 436.319 405.412 443.982 392.784 449.32C379.723 454.836 365.828 457.639 351.485 457.639C337.142 457.639 323.232 454.836 310.187 449.319C297.558 443.982 286.198 436.319 276.432 426.553C266.667 416.788 259.003 405.427 253.666 392.799C248.149 379.738 245.346 365.843 245.346 351.5C245.346 337.157 248.149 323.247 253.666 310.201C259.003 297.573 266.667 286.213 276.432 276.447C286.198 266.681 297.558 259.018 310.187 253.681C323.247 248.164 337.142 245.361 351.485 245.361L351.485 242.305C336.725 242.305 322.427 245.182 308.994 250.863C295.993 256.364 284.304 264.236 274.27 274.285C264.221 284.334 256.349 296.008 250.848 309.009C245.182 322.442 242.29 336.74 242.29 351.5Z" fill="white" fill-opacity="0.3"/>
</g>
<g opacity="0.7">
<path opacity="0.7" d="M231.496 351.5C231.496 367.706 234.671 383.421 240.918 398.196L243.736 397.003C237.653 382.616 234.567 367.304 234.567 351.5C234.567 335.696 237.653 320.384 243.736 305.997C249.625 292.072 258.064 279.563 268.814 268.813C279.563 258.064 292.072 249.625 305.997 243.736C320.385 237.653 335.696 234.567 351.5 234.567C367.304 234.567 382.616 237.653 397.003 243.736L398.196 240.918C383.421 234.671 367.706 231.496 351.5 231.496C335.279 231.496 319.579 234.671 304.804 240.918C290.521 246.957 277.685 255.619 266.652 266.652C255.619 277.684 246.971 290.521 240.918 304.804C234.671 319.579 231.496 335.294 231.496 351.5Z" fill="white" fill-opacity="0.3"/>
</g>
<g opacity="0.7">
<path opacity="0.7" d="M221.521 351.5C221.521 369.063 224.951 386.074 231.734 402.087C238.279 417.563 247.657 431.473 259.6 443.415C271.542 455.358 285.452 464.736 300.928 471.281L301.495 469.954C286.198 463.483 272.436 454.21 260.628 442.402C248.82 430.593 239.547 416.847 233.076 401.535C226.382 385.702 222.982 368.869 222.982 351.515L221.521 351.515L221.521 351.5Z" fill="white" fill-opacity="0.3"/>
</g>
<g opacity="0.7">
<g opacity="0.7">
<path opacity="0.7" d="M266.965 245.51L274.822 255.335C278.43 252.443 282.247 249.744 286.138 247.284L279.444 236.624C275.15 239.338 270.96 242.32 266.965 245.51ZM286.063 232.748L292.146 243.766C295.859 241.723 299.72 239.845 303.656 238.175C303.999 238.026 304.342 237.892 304.685 237.743L299.884 226.098C299.512 226.248 299.139 226.412 298.766 226.576C294.413 228.424 290.149 230.497 286.063 232.748ZM307.026 223.4L311.156 235.297C315.524 233.777 320.012 232.495 324.514 231.496L321.771 219.21C316.806 220.314 311.841 221.73 307.026 223.4ZM329.285 217.749L331.328 230.169C335.86 229.423 340.512 228.931 345.149 228.693L344.523 216.124C339.424 216.378 334.295 216.929 329.285 217.749ZM352.111 228.544C356.763 228.558 361.43 228.842 365.992 229.379L367.453 216.87C362.428 216.288 357.285 215.975 352.171 215.945L352.111 228.544ZM372.865 230.377C377.412 231.168 381.96 232.241 386.388 233.538L389.951 221.462C385.076 220.015 380.051 218.838 375.027 217.973L372.865 230.377Z" fill="white" fill-opacity="0.3"/>
</g>
<g opacity="0.7">
<path opacity="0.7" d="M255.649 255.649L264.549 264.549C266.16 262.939 267.829 261.359 269.529 259.838L261.12 250.46C259.257 252.13 257.423 253.874 255.649 255.649Z" fill="white" fill-opacity="0.3"/>
</g>
</g>
<g opacity="0.7">
<g opacity="0.7">
<g opacity="0.7">
<path opacity="0.7" d="M263.282 263.282C258.973 267.591 254.963 272.228 251.355 277.058L244.154 271.676C248.015 266.502 252.309 261.538 256.931 256.916L263.282 263.282ZM250.997 274.553C254.009 270.647 257.274 266.86 260.748 263.297L256.931 259.48C253.278 263.237 249.834 267.203 246.673 271.333L250.997 274.553Z" fill="white" fill-opacity="0.3"/>
</g>
</g>
<g opacity="0.7">
<g opacity="0.7">
<path opacity="0.7" d="M246.524 284.021C242.678 289.985 239.323 296.351 236.535 302.941C233.523 310.052 231.183 317.462 229.558 324.977L220.761 323.068C222.506 315.017 225.025 307.071 228.246 299.437C231.227 292.385 234.835 285.556 238.95 279.16L246.524 284.021ZM229.901 300.138C226.948 307.115 224.593 314.346 222.908 321.696L228.186 322.844C229.811 315.837 232.062 308.904 234.88 302.255C237.474 296.127 240.546 290.193 244.049 284.587L239.517 281.665C235.849 287.525 232.614 293.742 229.901 300.138Z" fill="white" fill-opacity="0.3"/>
</g>
</g>
<g opacity="0.7">
<g opacity="0.7">
<path opacity="0.7" d="M228.037 333.326C227.172 339.274 226.725 345.402 226.725 351.5L217.735 351.5C217.735 344.97 218.212 338.41 219.136 332.029L228.037 333.326ZM219.553 349.696L224.951 349.696C225.025 344.716 225.383 339.737 226.009 334.846L220.672 334.071C220.001 339.215 219.628 344.463 219.553 349.696Z" fill="white" fill-opacity="0.3"/>
</g>
</g>
</g>
<g opacity="0.7">
<g opacity="0.7">
<path opacity="0.7" d="M240.665 398.3C241.962 401.371 243.408 404.428 244.959 407.38L248.149 405.71C246.643 402.847 245.242 399.895 243.99 396.899L240.665 398.3Z" fill="white" fill-opacity="0.3"/>
</g>
<g opacity="0.7">
<path opacity="0.7" d="M248.09 412.956C251.593 418.86 255.664 424.496 260.151 429.729L262.88 427.388C258.526 422.304 254.59 416.832 251.176 411.122L248.09 412.956ZM264.43 434.47C265.086 435.171 265.772 435.856 266.458 436.542C270.662 440.747 275.18 444.653 279.906 448.157L282.053 445.264C277.476 441.865 273.078 438.063 269.007 433.993C268.351 433.337 267.68 432.651 267.039 431.98L264.43 434.47ZM285.139 451.839C290.864 455.626 296.962 458.951 303.284 461.724L304.73 458.429C298.602 455.745 292.683 452.525 287.137 448.842L285.139 451.839ZM309.203 464.124C315.643 466.555 322.338 468.418 329.106 469.7L329.777 466.167C323.232 464.929 316.732 463.125 310.485 460.77L309.203 464.124ZM335.413 470.714C340.691 471.415 346.103 471.773 351.5 471.773C353.006 471.773 354.542 471.743 356.047 471.683L355.913 468.09C354.452 468.15 352.976 468.165 351.5 468.165C346.267 468.165 341.004 467.822 335.89 467.136L335.413 470.714ZM362.101 467.703L362.414 471.281C369.287 470.669 376.13 469.447 382.765 467.673L381.825 464.199C375.415 465.928 368.78 467.106 362.101 467.703Z" fill="white" fill-opacity="0.3"/>
</g>
</g>
<g opacity="0.7">
<g opacity="0.7">
<path opacity="0.7" d="M260.017 351.485L260.017 351.5C260.017 352.067 260.017 352.648 260.032 353.215L292.4 352.633C292.4 352.26 292.385 351.888 292.385 351.515L292.385 351.157L260.017 350.993C260.017 351.157 260.017 351.321 260.017 351.485ZM260.286 344.284L292.564 346.774C292.594 346.297 292.639 345.805 292.698 345.328L260.494 342.048C260.405 342.793 260.345 343.553 260.286 344.284ZM260.39 359.924C260.464 360.669 260.539 361.415 260.613 362.16L292.773 358.463C292.713 357.986 292.668 357.508 292.624 357.016L260.39 359.924ZM261.419 335.368L293.295 341.004C293.384 340.527 293.473 340.05 293.563 339.588L261.836 333.162C261.687 333.892 261.538 334.638 261.419 335.368ZM261.627 368.825C261.762 369.555 261.926 370.301 262.075 371.031L293.712 364.173C293.608 363.711 293.518 363.234 293.429 362.756L261.627 368.825ZM263.416 326.602L294.577 335.383C294.711 334.921 294.845 334.459 294.979 333.997L264.058 324.44C263.834 325.155 263.625 325.871 263.416 326.602ZM263.759 377.576C263.968 378.292 264.192 379.022 264.43 379.723L295.233 369.749C295.084 369.287 294.935 368.825 294.8 368.362L263.759 377.576ZM266.294 318.059L296.425 329.897C296.604 329.449 296.783 329.002 296.977 328.555L267.144 315.971C266.86 316.672 266.562 317.373 266.294 318.059ZM269.991 309.859L298.811 324.604C299.035 324.171 299.258 323.739 299.482 323.322L271.035 307.861C270.692 308.532 270.334 309.188 269.991 309.859ZM274.479 302.076L301.703 319.594C301.972 319.192 302.24 318.789 302.508 318.387L275.731 300.197C275.299 300.809 274.882 301.435 274.479 302.076ZM279.712 294.756L305.073 314.868C305.371 314.495 305.684 314.108 305.982 313.735L281.114 293.011C280.652 293.593 280.174 294.174 279.712 294.756ZM285.616 288.017L308.919 310.485C309.173 310.216 309.441 309.948 309.695 309.695C309.784 309.605 309.859 309.531 309.948 309.441L287.197 286.421C287.062 286.541 286.943 286.675 286.809 286.809C286.406 287.211 286.004 287.614 285.616 288.017ZM292.132 281.889L313.169 306.489C313.526 306.176 313.914 305.863 314.287 305.565L293.846 280.458C293.28 280.92 292.698 281.397 292.132 281.889ZM299.228 276.387L317.761 302.926C318.148 302.657 318.551 302.374 318.953 302.106L301.077 275.105C300.466 275.538 299.84 275.955 299.228 276.387ZM306.862 271.601L322.666 299.854C323.083 299.616 323.516 299.392 323.933 299.169L308.815 270.543C308.174 270.886 307.503 271.244 306.862 271.601Z" fill="white" fill-opacity="0.3"/>
</g>
<g opacity="0.7">
<path opacity="0.7" d="M266.756 386.089C266.89 386.432 267.039 386.76 267.174 387.088L296.992 374.475C296.903 374.252 296.813 374.043 296.724 373.819L266.756 386.089Z" fill="white" fill-opacity="0.3"/>
</g>
</g>
<g opacity="0.7">
<path opacity="0.7" d="M221.521 351.5C221.521 369.063 224.951 386.074 231.734 402.087C238.279 417.563 247.657 431.473 259.6 443.415C271.542 455.358 285.452 464.736 300.928 471.281L301.495 469.954C286.198 463.483 272.436 454.21 260.628 442.402C248.82 430.593 239.547 416.847 233.076 401.535C226.382 385.702 222.982 368.869 222.982 351.515L221.521 351.515L221.521 351.5Z" fill="white" fill-opacity="0.3"/>
</g>
<path opacity="0.7" d="M266.965 245.51L274.822 255.336C278.43 252.443 282.247 249.745 286.138 247.285L279.444 236.624C275.15 239.338 270.96 242.32 266.965 245.51Z" fill="white" fill-opacity="0.3"/>
<g opacity="0.7">
<g opacity="0.7">
<path opacity="0.7" d="M246.524 284.021C242.678 289.985 239.323 296.351 236.535 302.941C233.523 310.052 231.183 317.462 229.557 324.977L220.761 323.068C222.505 315.017 225.025 307.071 228.245 299.437C231.227 292.385 234.835 285.556 238.95 279.16L246.524 284.021ZM229.9 300.138C226.948 307.115 224.593 314.346 222.908 321.696L228.186 322.844C229.811 315.837 232.062 308.904 234.88 302.255C237.474 296.127 240.546 290.193 244.049 284.587L239.517 281.665C235.849 287.525 232.614 293.742 229.9 300.138Z" fill="white" fill-opacity="0.3"/>
</g>
</g>
<g opacity="0.7">
<path opacity="0.7" d="M209.922 351.5C209.922 370.614 213.664 389.161 221.044 406.605C228.171 423.467 238.384 438.6 251.385 451.616C264.385 464.616 279.533 474.829 296.396 481.956C313.839 489.336 332.386 493.078 351.5 493.078C370.614 493.078 389.161 489.336 406.605 481.956C423.467 474.829 438.6 464.616 451.616 451.616C464.616 438.615 474.829 423.467 481.956 406.605C489.336 389.161 493.078 370.614 493.078 351.5C493.078 332.386 489.336 313.839 481.956 296.396C474.829 279.533 464.616 264.4 451.616 251.385C438.615 238.384 423.467 228.171 406.605 221.044C389.161 213.664 370.614 209.922 351.5 209.922C332.386 209.922 313.839 213.664 296.396 221.044C279.533 228.171 264.4 238.384 251.385 251.385C238.384 264.385 228.171 279.533 221.044 296.396C213.664 313.839 209.922 332.386 209.922 351.5ZM490.022 351.5C490.022 370.211 486.354 388.341 479.138 405.412C472.16 421.901 462.171 436.721 449.439 449.454C436.706 462.186 421.901 472.175 405.397 479.153C388.326 486.369 370.181 490.037 351.485 490.037C332.774 490.037 314.644 486.369 297.573 479.153C281.084 472.175 266.264 462.186 253.532 449.454C240.799 436.721 230.81 421.916 223.832 405.412C216.616 388.341 212.949 370.196 212.949 351.5C212.949 332.789 216.616 314.659 223.832 297.588C230.81 281.099 240.799 266.279 253.532 253.546C266.264 240.814 281.069 230.825 297.573 223.847C314.644 216.631 332.789 212.963 351.485 212.963C370.196 212.963 388.326 216.631 405.397 223.847C421.887 230.825 436.706 240.814 449.439 253.546C462.171 266.279 472.16 281.084 479.138 297.588C486.369 314.659 490.022 332.789 490.022 351.5Z" fill="white" fill-opacity="0.3"/>
</g>
</g>
<g opacity="0.5">
<g opacity="0.5">
<path opacity="0.5" d="M192.582 38.0785C150.255 59.5329 113.414 88.6356 83.0741 124.552C53.7626 159.261 31.697 198.86 17.5034 242.245C3.30979 285.631 -2.29613 330.612 0.834812 375.936C4.08502 422.841 16.6088 468.09 38.0632 510.418C59.5176 552.745 88.6204 589.586 124.537 619.926C159.245 649.238 198.844 671.303 242.23 685.497C285.616 699.69 330.597 705.296 375.921 702.165C422.826 698.915 468.075 686.391 510.402 664.937C552.73 643.483 589.57 614.38 619.911 578.463C649.222 543.755 671.288 504.156 685.482 460.77C699.675 417.384 705.281 372.403 702.15 327.079C698.9 280.175 686.376 234.925 664.922 192.598C643.467 150.27 614.365 113.43 578.448 83.0895C543.74 53.7779 504.141 31.7122 460.755 17.5186C417.369 3.32504 372.388 -2.2808 327.064 0.850136C280.159 4.10035 234.91 16.6241 192.582 38.0785ZM506.988 658.153C465.585 679.145 421.32 691.401 375.414 694.577C331.074 697.648 287.062 692.161 244.601 678.266C202.139 664.385 163.405 642.797 129.442 614.111C94.3008 584.427 65.8391 548.377 44.832 506.974C23.8398 465.571 11.5844 421.305 8.40874 375.4C5.33744 331.06 10.824 287.048 24.7194 244.586C38.5999 202.125 60.1885 163.39 88.8738 129.427C118.558 94.2862 154.609 65.8245 196.012 44.8174C237.415 23.8252 281.695 11.5699 327.586 8.39422C371.926 5.32292 415.938 10.8095 458.399 24.7049C500.861 38.5854 539.595 60.1739 573.558 88.8593C608.699 118.544 637.161 154.594 658.168 195.997C679.145 237.43 691.415 281.695 694.591 327.586C697.662 371.926 692.176 415.938 678.28 458.399C664.385 500.846 642.811 539.595 614.126 573.558C584.442 608.699 548.391 637.161 506.988 658.153Z" fill="white" fill-opacity="0.3"/>
</g>
<g opacity="0.5">
<path opacity="0.5" d="M228.931 109.747C196.25 126.311 167.833 148.749 144.471 176.406C121.868 203.168 104.842 233.732 93.8836 267.233C82.9253 300.734 78.5868 335.443 81.017 370.39C83.5217 406.515 93.1829 441.403 109.747 474.084C126.311 506.765 148.75 535.182 176.406 558.544C203.168 581.147 233.732 598.173 267.233 609.132C300.734 620.09 335.443 624.428 370.39 621.998L369.868 614.424C335.905 616.78 302.166 612.561 269.589 601.915C237.012 591.255 207.313 574.721 181.296 552.745C154.415 530.038 132.618 502.411 116.516 470.655C100.414 438.883 91.0061 404.979 88.5759 369.868C86.2203 335.905 90.4395 302.165 101.085 269.589C111.745 237.012 128.279 207.313 150.255 181.296C172.962 154.415 200.589 132.618 232.346 116.516C264.117 100.414 298.021 91.0059 333.132 88.5757C367.095 86.2201 400.835 90.4394 433.411 101.085C465.988 111.745 495.687 128.279 521.704 150.255C548.585 172.962 570.383 200.589 586.485 232.345L593.253 228.916C576.689 196.235 554.251 167.818 526.594 144.456C499.832 121.853 469.268 104.827 435.767 93.8685C402.266 82.9102 367.557 78.5717 332.61 81.0019C296.485 83.5066 261.597 93.1827 228.931 109.747Z" fill="white" fill-opacity="0.3"/>
</g>
<g opacity="0.5">
<path opacity="0.5" d="M205.852 228.26C189.959 247.076 177.986 268.59 170.249 292.221C162.526 315.837 159.469 340.273 161.169 364.859C162.928 390.204 169.727 414.73 181.416 437.765L188.184 434.336C176.973 412.21 170.428 388.669 168.743 364.337C167.103 340.75 170.04 317.283 177.465 294.592C184.889 271.9 196.384 251.235 211.651 233.165L205.852 228.26Z" fill="white" fill-opacity="0.3"/>
</g>
<g opacity="0.5">
<path opacity="0.5" d="M216.81 85.8623C180.924 104.066 149.689 128.711 124 159.126L129.8 164.016C154.832 134.377 185.262 110.358 220.239 92.6311C255.216 74.8891 292.579 64.5421 331.283 61.8584C368.705 59.2642 405.874 63.901 441.746 75.6345C477.617 87.3681 510.328 105.587 538.984 129.8C568.623 154.832 592.642 185.262 610.369 220.239C628.096 255.216 638.458 292.579 641.142 331.283L648.716 330.761C645.972 291.043 635.342 252.697 617.153 216.81C598.949 180.924 574.304 149.689 543.889 124C514.473 99.1613 480.912 80.4502 444.101 68.4185C407.305 56.3867 369.168 51.6307 330.761 54.2845C291.043 57.0427 252.712 67.6581 216.81 85.8623Z" fill="white" fill-opacity="0.3"/>
</g>
<g opacity="0.5">
<path opacity="0.5" d="M205.613 63.7668C166.745 83.4768 132.916 110.179 105.08 143.144C78.1693 175.005 57.9076 211.368 44.8769 251.206C31.8463 291.058 26.6877 332.357 29.5801 373.953L33.1434 373.7C30.2957 332.55 35.3947 291.714 48.2763 252.309C61.1727 212.904 81.1958 176.943 107.809 145.44C135.346 112.848 168.788 86.4288 207.224 66.9424L205.613 63.7668Z" fill="white" fill-opacity="0.3"/>
</g>
<g opacity="0.5">
<g opacity="0.5">
<path opacity="0.5" d="M81.2853 488.516L49.4392 504.663C56.9237 519.423 65.4816 533.661 74.8893 547.02L104.082 526.46C95.6578 514.503 87.9796 501.74 81.2853 488.516Z" fill="white" fill-opacity="0.3"/>
</g>
<g opacity="0.5">
<path opacity="0.5" d="M115.949 542.189L88.1584 564.627C101.472 581.117 116.486 596.444 132.767 610.205C146.006 621.387 160.17 631.6 174.87 640.575L193.477 610.086C180.342 602.065 167.669 592.925 155.816 582.921C141.25 570.621 127.847 556.919 115.949 542.189ZM210.623 619.792L194.059 651.429C210.653 660.121 228.201 667.501 246.196 673.39C264.982 679.533 284.319 684.065 303.671 686.838L308.755 651.489C291.446 648.999 274.121 644.944 257.289 639.442C241.187 634.179 225.472 627.574 210.623 619.792Z" fill="white" fill-opacity="0.3"/>
</g>
</g>
<g opacity="0.5">
<g opacity="0.5">
<path opacity="0.5" d="M81.2704 488.516L49.4243 504.663C28.7452 463.871 16.6687 420.261 13.5378 375.057L49.1708 372.597C51.9589 413.001 62.768 452.003 81.2704 488.516ZM51.4222 498.654L75.3067 486.548C58.3996 452.018 48.2316 415.312 45.0559 377.368L18.3237 379.216C21.7677 420.753 32.89 460.889 51.4222 498.654Z" fill="white" fill-opacity="0.3"/>
</g>
</g>
<g opacity="0.5">
<g opacity="0.5">
<g opacity="0.5">
<path opacity="0.5" d="M383.033 43.3711C365.515 41.567 347.639 41.2688 329.941 42.4914C310.813 43.8183 291.759 46.9343 273.331 51.7649L267.68 30.1764C287.45 24.988 307.891 21.6483 328.406 20.2319C347.385 18.9199 366.529 19.233 385.329 21.1712L383.033 43.3711ZM328.719 24.6748C309.978 25.9719 291.297 28.8942 273.152 33.3819L276.537 46.338C293.876 42.059 311.722 39.271 329.643 38.0335C346.103 36.9004 362.712 37.0495 379.052 38.4957L380.424 25.1669C363.323 23.6461 345.939 23.4821 328.719 24.6748Z" fill="white" fill-opacity="0.3"/>
</g>
</g>
<g opacity="0.5">
<g opacity="0.5">
<path opacity="0.5" d="M253.159 57.8032C239.01 62.5741 224.98 68.4632 211.458 75.3066L201.364 55.4028C215.826 48.0674 230.855 41.7608 246.032 36.647L253.159 57.8032ZM207.388 57.3857L213.441 69.328C224.548 63.8861 235.983 59.0853 247.508 55.0151L243.229 42.3274C231.093 46.6064 219.062 51.6606 207.388 57.3857Z" fill="white" fill-opacity="0.3"/>
</g>
</g>
</g>
<g opacity="0.5">
<path opacity="0.5" d="M644.258 331.074C646.882 368.899 642.185 406.47 630.333 442.715C618.48 478.959 600.052 512.028 575.586 540.996C550.285 570.949 519.527 595.236 484.162 613.157C448.813 631.078 411.048 641.544 371.926 644.258C334.101 646.882 296.53 642.185 260.285 630.332C224.041 618.48 190.972 600.052 162.004 575.586L161.139 576.614C190.242 601.2 223.46 619.702 259.868 631.615C296.276 643.527 334.012 648.238 372.015 645.599C411.316 642.886 449.245 632.375 484.774 614.365C520.288 596.354 551.194 571.963 576.615 541.876C601.2 512.773 619.702 479.555 631.615 443.147C643.527 406.739 648.239 369.003 645.6 331L644.258 331.074Z" fill="white" fill-opacity="0.3"/>
</g>
<g opacity="0.5">
<g opacity="0.5">
<path opacity="0.5" d="M123.493 158.694C118.141 165.03 112.997 171.65 108.211 178.374L115.487 183.548C120.124 177.017 125.118 170.591 130.307 164.449L123.493 158.694Z" fill="white" fill-opacity="0.3"/>
</g>
<g opacity="0.5">
<path opacity="0.5" d="M99.3702 191.554C90.2606 205.941 82.314 221.253 75.7689 237.087L84.0136 240.501C90.365 225.144 98.0582 210.295 106.899 196.34L99.3702 191.554ZM70.1034 251.891C69.3132 254.143 68.5379 256.424 67.7924 258.69C63.2004 272.705 59.6371 287.122 57.1622 301.494L65.9586 303C68.3441 289.045 71.8179 275.06 76.2758 261.463C76.9914 259.257 77.7518 257.035 78.5271 254.858L70.1034 251.891ZM54.896 317.209C52.9279 334.131 52.4061 351.366 53.3752 368.467L62.2909 367.96C61.3517 351.381 61.8437 334.653 63.7669 318.237L54.896 317.209ZM54.6872 384.285C56.5509 401.282 59.9204 418.204 64.6913 434.589L73.2641 432.099C68.6423 416.221 65.3772 399.806 63.5582 383.316L54.6872 384.285ZM69.5517 449.692C73.9201 462.171 79.2129 474.546 85.2661 486.503C86.9657 489.843 88.7399 493.197 90.5439 496.462L98.3563 492.139C96.5971 488.963 94.8676 485.713 93.2276 482.463C87.3534 470.863 82.2096 458.846 77.9754 446.74L69.5517 449.692ZM106.169 505.393L98.5949 510.119C107.675 524.656 118.037 538.447 129.412 551.105L136.062 545.141C125.029 532.871 114.965 519.497 106.169 505.393Z" fill="white" fill-opacity="0.3"/>
</g>
<g opacity="0.5">
<path opacity="0.5" d="M146.647 556.338L140.341 562.644C146.185 568.474 152.358 574.154 158.694 579.507L164.449 572.693C158.306 567.505 152.313 561.988 146.647 556.338Z" fill="white" fill-opacity="0.3"/>
</g>
</g>
<g opacity="0.5">
<g opacity="0.5">
<g opacity="0.5">
<path opacity="0.5" d="M164.151 474.337L162.242 471.311C158.485 465.362 154.952 459.115 151.746 452.778L150.136 449.588L216.229 416.072L217.839 419.262C220.016 423.556 222.416 427.776 224.936 431.801L226.844 434.813L164.151 474.337ZM214.648 420.888L154.937 451.168C158.098 457.415 161.586 463.543 165.284 469.402L221.939 433.71C219.33 429.595 216.885 425.286 214.648 420.888Z" fill="white" fill-opacity="0.3"/>
</g>
</g>
<g opacity="0.5">
<g opacity="0.5">
<path opacity="0.5" d="M421.663 564.27L418.264 565.343C404.681 569.622 390.637 572.589 376.518 574.169L372.969 574.572L364.725 500.92L368.273 500.518C377.666 499.474 386.999 497.491 396.034 494.644L399.433 493.57L421.663 564.27ZM368.661 504.066L376.115 570.621C390.011 569.07 403.832 566.148 417.19 561.944L397.107 498.073C387.849 500.98 378.277 502.993 368.661 504.066ZM364.143 575.228L360.58 575.377C346.371 575.944 332.073 575.138 318.044 572.992L314.51 572.455L325.707 499.206L329.241 499.742C338.604 501.174 348.146 501.711 357.628 501.338L361.191 501.189L364.143 575.228ZM328.674 503.276L318.566 569.458C332.372 571.575 346.446 572.35 360.416 571.799L357.747 504.886C348.041 505.289 338.261 504.737 328.674 503.276ZM305.803 570.8L302.315 570.01C295.471 568.459 288.583 566.551 281.859 564.359C275.12 562.153 268.441 559.618 261.985 556.815L258.705 555.399L288.21 487.427L291.49 488.844C295.844 490.722 300.347 492.437 304.894 493.928C309.441 495.419 314.078 496.701 318.7 497.745L322.174 498.535L305.803 570.8ZM303.806 497.327C299.154 495.806 294.532 494.047 290.089 492.124L263.431 553.55C269.783 556.308 276.358 558.798 282.992 560.975C289.612 563.137 296.381 565.015 303.12 566.551L317.925 501.248C313.198 500.16 308.442 498.848 303.806 497.327ZM250.744 551.597L247.583 549.942C234.999 543.382 222.983 535.569 211.86 526.713L209.072 524.492L255.216 466.51L258.004 468.731C265.429 474.635 273.45 479.854 281.844 484.237L285.005 485.892L250.744 551.597ZM255.783 471.534L214.082 523.925C225.025 532.632 236.848 540.325 249.238 546.781L280.204 487.413C271.602 482.925 263.387 477.587 255.783 471.534ZM202.333 518.737L199.709 516.322C189.258 506.705 179.671 496 171.248 484.535L169.13 481.658L228.857 437.78L230.974 440.657C236.58 448.291 242.946 455.402 249.894 461.798L252.518 464.214L202.333 518.737ZM228.082 442.759L174.125 482.403C182.415 493.689 191.837 504.215 202.125 513.683L247.464 464.423C240.352 457.862 233.822 450.572 228.082 442.759Z" fill="white" fill-opacity="0.3"/>
</g>
</g>
</g>
<g opacity="0.5">
<g opacity="0.5">
<path opacity="0.5" d="M248.85 148.943L248.805 148.958C247.538 149.599 246.271 150.255 245.018 150.911L282.649 221.909C283.454 221.477 284.289 221.044 285.124 220.627L285.9 220.239L249.909 148.392C249.581 148.57 249.208 148.764 248.85 148.943ZM265.086 141.474L295.814 215.722C296.917 215.259 298.036 214.812 299.154 214.38L270.26 139.401C268.545 140.072 266.801 140.773 265.086 141.474ZM230.601 159.245C229.021 160.229 227.44 161.243 225.905 162.257L270.2 229.304C271.184 228.648 272.213 227.992 273.227 227.351L230.601 159.245ZM286.093 133.974L309.382 210.876C310.53 210.533 311.693 210.19 312.826 209.877L291.461 132.424C289.672 132.916 287.868 133.438 286.093 133.974ZM212.293 171.993C210.817 173.126 209.341 174.304 207.909 175.467L258.601 237.817C259.525 237.072 260.464 236.326 261.419 235.596L212.293 171.993ZM307.771 128.562L323.307 207.402C324.47 207.179 325.648 206.955 326.825 206.761L313.273 127.563C311.439 127.862 309.59 128.204 307.771 128.562ZM195.296 186.529C193.954 187.797 192.598 189.109 191.286 190.421L247.941 247.404C248.79 246.569 249.655 245.719 250.52 244.899L195.296 186.529ZM329.897 125.342L337.515 205.33C338.678 205.226 339.886 205.121 341.094 205.032L335.473 124.88C333.609 125.014 331.731 125.178 329.897 125.342ZM352.186 124.328L351.873 204.674C353.081 204.674 354.288 204.704 355.466 204.734L357.762 124.418C355.928 124.373 354.05 124.343 352.186 124.328ZM374.49 125.521L366.245 205.449C367.438 205.568 368.631 205.718 369.809 205.867L380.021 126.162C378.203 125.923 376.339 125.715 374.49 125.521ZM396.541 128.905L380.484 207.641C381.647 207.879 382.839 208.133 384.002 208.401L401.983 130.083C400.164 129.666 398.345 129.263 396.541 128.905ZM418.085 134.392L394.483 211.204C395.363 211.472 396.243 211.756 397.107 212.039C397.391 212.129 397.659 212.218 397.927 212.307L423.363 136.091C422.945 135.957 422.513 135.808 422.095 135.674C420.768 135.242 419.427 134.809 418.085 134.392ZM438.973 141.921L408.14 216.124C409.244 216.586 410.347 217.063 411.45 217.555L444.101 144.128C442.402 143.367 440.687 142.637 438.973 141.921ZM459.115 151.478L421.171 222.312C422.215 222.878 423.273 223.46 424.317 224.041L464.02 154.176C462.395 153.252 460.74 152.343 459.115 151.478ZM478.258 162.988L433.486 229.706C434.47 230.377 435.469 231.063 436.453 231.749L482.865 166.148C481.345 165.09 479.794 164.016 478.258 162.988Z" fill="white" fill-opacity="0.3"/>
</g>
<g opacity="0.5">
<path opacity="0.5" d="M179.82 202.721C179.224 203.407 178.643 204.092 178.061 204.778L239.442 256.633C239.815 256.185 240.203 255.738 240.59 255.291L179.82 202.721Z" fill="white" fill-opacity="0.3"/>
</g>
</g>
<g opacity="0.5">
<path opacity="0.5" d="M205.852 228.26C189.959 247.076 177.986 268.59 170.249 292.221C162.526 315.837 159.469 340.273 161.169 364.859C162.928 390.204 169.727 414.73 181.416 437.765L188.184 434.336C176.973 412.21 170.428 388.669 168.743 364.337C167.103 340.75 170.04 317.283 177.465 294.592C184.889 271.9 196.384 251.235 211.651 233.165L205.852 228.26Z" fill="white" fill-opacity="0.3"/>
</g>
<path opacity="0.5" d="M210.623 619.792L194.059 651.429C210.653 660.121 228.201 667.501 246.196 673.39C264.982 679.533 284.319 684.065 303.671 686.838L308.755 651.489C291.446 648.999 274.121 644.943 257.289 639.442C241.187 634.179 225.472 627.574 210.623 619.792Z" fill="white" fill-opacity="0.3"/>
<g opacity="0.5">
<path opacity="0.5" d="M205.613 63.7668C166.745 83.4768 132.916 110.179 105.08 143.144C78.1693 175.005 57.9076 211.368 44.8769 251.206C31.8463 291.058 26.6877 332.357 29.5801 373.953L33.1434 373.7C30.2957 332.55 35.3947 291.714 48.2763 252.309C61.1727 212.904 81.1958 176.943 107.809 145.44C135.346 112.848 168.788 86.4288 207.224 66.9424L205.613 63.7668Z" fill="white" fill-opacity="0.3"/>
</g>
<g opacity="0.5">
<g opacity="0.5">
<path opacity="0.5" d="M383.033 43.371C365.515 41.567 347.639 41.2688 329.941 42.4913C310.813 43.8182 291.759 46.9343 273.331 51.7649L267.68 30.1764C287.45 24.9879 307.891 21.6482 328.406 20.2319C347.385 18.9199 366.529 19.2329 385.329 21.1711L383.033 43.371ZM328.719 24.6748C309.978 25.9719 291.297 28.8942 273.152 33.3818L276.537 46.3379C293.876 42.059 311.722 39.2709 329.643 38.0335C346.103 36.9004 362.712 37.0495 379.052 38.4957L380.424 25.1668C363.323 23.6461 345.939 23.4821 328.719 24.6748Z" fill="white" fill-opacity="0.3"/>
</g>
</g>
<g opacity="0.5">
<path opacity="0.5" d="M192.582 38.0785C150.255 59.5329 113.414 88.6356 83.0741 124.552C53.7626 159.261 31.697 198.86 17.5034 242.245C3.30979 285.631 -2.29613 330.612 0.834812 375.936C4.08502 422.841 16.6088 468.09 38.0632 510.418C59.5176 552.745 88.6204 589.586 124.537 619.926C159.245 649.238 198.844 671.303 242.23 685.497C285.616 699.69 330.597 705.296 375.921 702.165C422.826 698.915 468.075 686.391 510.402 664.937C552.73 643.483 589.57 614.38 619.911 578.463C649.222 543.755 671.288 504.156 685.482 460.77C699.675 417.384 705.281 372.403 702.15 327.079C698.9 280.175 686.376 234.925 664.922 192.598C643.467 150.27 614.365 113.43 578.448 83.0895C543.74 53.7779 504.141 31.7122 460.755 17.5186C417.369 3.32504 372.388 -2.2808 327.064 0.850136C280.159 4.10035 234.91 16.6241 192.582 38.0785ZM506.988 658.153C465.585 679.145 421.32 691.401 375.414 694.577C331.074 697.648 287.062 692.161 244.601 678.266C202.139 664.385 163.405 642.797 129.442 614.111C94.3008 584.427 65.8391 548.377 44.832 506.974C23.8398 465.571 11.5844 421.305 8.40874 375.4C5.33744 331.06 10.824 287.048 24.7194 244.586C38.5999 202.125 60.1885 163.39 88.8738 129.427C118.558 94.2862 154.609 65.8245 196.012 44.8174C237.415 23.8252 281.695 11.5699 327.586 8.39422C371.926 5.32292 415.938 10.8095 458.399 24.7049C500.861 38.5854 539.595 60.1739 573.558 88.8593C608.699 118.544 637.161 154.594 658.168 195.997C679.145 237.43 691.415 281.695 694.591 327.586C697.662 371.926 692.176 415.938 678.28 458.399C664.385 500.846 642.811 539.595 614.126 573.558C584.442 608.699 548.391 637.161 506.988 658.153Z" fill="white" fill-opacity="0.3"/>
</g>
</g>
</g>
</svg>
